<!-- Generated by IcoMoon.io -->
<svg version="1.1" xmlns="http://www.w3.org/2000/svg" width="24" height="24" viewBox="0 0 24 24">
<title>at-sign</title>
<path d="M15 12c0 0.829-0.335 1.577-0.879 2.121s-1.292 0.879-2.121 0.879-1.577-0.335-2.121-0.879-0.879-1.292-0.879-2.121 0.335-1.577 0.879-2.121 1.292-0.879 2.121-0.879 1.577 0.335 2.121 0.879 0.879 1.292 0.879 2.121zM15.74 15.318c0.13 0.182 0.274 0.353 0.431 0.51 0.723 0.723 1.725 1.172 2.829 1.172s2.106-0.449 2.828-1.172 1.172-1.724 1.172-2.828v-1c0-3.037-1.233-5.789-3.222-7.778s-4.741-3.222-7.779-3.221-5.788 1.232-7.778 3.222-3.221 4.741-3.221 7.778 1.233 5.789 3.222 7.778 4.741 3.222 7.778 3.221c2.525 0 4.855-0.852 6.69-2.269 0.437-0.337 0.518-0.965 0.18-1.403s-0.965-0.518-1.403-0.18c-1.487 1.148-3.377 1.844-5.435 1.852-2.54-0.009-4.776-1.014-6.398-2.636-1.627-1.629-2.634-3.877-2.634-6.363s1.006-4.734 2.636-6.364 3.878-2.636 6.364-2.636 4.734 1.006 6.364 2.636 2.636 3.878 2.636 6.363v1c0 0.553-0.223 1.051-0.586 1.414s-0.861 0.586-1.414 0.586-1.051-0.223-1.414-0.586-0.586-0.861-0.586-1.414v-5c0-0.552-0.448-1-1-1s-1 0.448-1 1c-0.835-0.627-1.875-1-3-1-1.38 0-2.632 0.561-3.536 1.464s-1.464 2.156-1.464 3.536 0.561 2.632 1.464 3.536 2.156 1.464 3.536 1.464 2.632-0.561 3.536-1.464c0.070-0.070 0.139-0.143 0.205-0.217z"></path>
</svg>
