<!-- Generated by IcoMoon.io -->
<svg version="1.1" xmlns="http://www.w3.org/2000/svg" width="24" height="24" viewBox="0 0 24 24">
<title>hexagon</title>
<path d="M20 16c-0.001 0.121-0.025 0.246-0.070 0.362-0.080 0.206-0.225 0.384-0.426 0.5l-6.999 3.999c-0.112 0.064-0.232 0.105-0.355 0.124-0.218 0.034-0.445-0.003-0.654-0.124l-6.991-3.995c-0.111-0.065-0.207-0.148-0.285-0.245-0.139-0.171-0.22-0.385-0.22-0.621v-7.993c0.001-0.128 0.025-0.253 0.070-0.369 0.080-0.206 0.225-0.384 0.426-0.5l6.999-3.999c0.112-0.064 0.232-0.105 0.355-0.124 0.218-0.034 0.445 0.003 0.654 0.124l6.991 3.995c0.111 0.065 0.207 0.148 0.285 0.245 0.139 0.171 0.22 0.385 0.22 0.621zM22 16v-8c-0.001-0.71-0.248-1.363-0.664-1.878-0.23-0.286-0.512-0.528-0.831-0.715l-7.009-4.005c-0.61-0.352-1.3-0.465-1.954-0.364-0.363 0.057-0.715 0.179-1.037 0.363l-7.001 4.001c-0.618 0.357-1.060 0.897-1.299 1.514-0.133 0.342-0.202 0.707-0.205 1.077v8.007c0.001 0.71 0.248 1.363 0.664 1.878 0.23 0.286 0.512 0.528 0.831 0.715l7.009 4.005c0.61 0.352 1.3 0.465 1.954 0.364 0.363-0.057 0.715-0.179 1.037-0.363l7.001-4.001c0.618-0.357 1.060-0.897 1.299-1.514 0.133-0.342 0.202-0.707 0.205-1.084z"></path>
</svg>
